<svg width="655" height="125" viewBox="0 0 655 125" fill="none" xmlns="http://www.w3.org/2000/svg">
<path d="M212.591 120C202.805 120 194.461 118.35 187.559 115.049C180.657 111.641 175.301 106.743 171.49 100.354C167.678 93.8588 165.567 85.9792 165.155 76.7153C165.052 72.243 165 67.3981 165 62.1806C165 56.963 165.052 52.0116 165.155 47.3264C165.567 38.2755 167.678 30.6088 171.49 24.3264C175.301 18.044 180.709 13.2523 187.714 9.95139C194.718 6.65046 203.011 5 212.591 5C220.213 5 226.96 6.01157 232.832 8.03472C238.704 10.0579 243.648 12.7199 247.665 16.0208C251.683 19.2153 254.722 22.7824 256.782 26.7222C258.945 30.5556 260.078 34.3356 260.181 38.0625C260.181 39.0208 259.821 39.8194 259.099 40.4583C258.481 41.0972 257.709 41.4167 256.782 41.4167H235.922C234.892 41.4167 234.068 41.2037 233.45 40.7778C232.935 40.3519 232.42 39.7662 231.905 39.0208C231.287 37.3171 230.205 35.5069 228.66 33.5903C227.218 31.6736 225.209 30.0764 222.634 28.7986C220.059 27.5208 216.711 26.8819 212.591 26.8819C206.41 26.8819 201.517 28.5857 197.912 31.9931C194.409 35.294 192.504 40.6713 192.195 48.125C191.886 57.2824 191.886 66.5463 192.195 75.9167C192.504 83.7963 194.512 89.4931 198.221 93.0069C201.929 96.4144 206.822 98.1181 212.9 98.1181C217.02 98.1181 220.677 97.4259 223.87 96.0417C227.063 94.5509 229.587 92.2616 231.441 89.1736C233.296 86.0856 234.223 82.0926 234.223 77.1944V73.6806H218.462C217.329 73.6806 216.402 73.3079 215.681 72.5625C214.96 71.7106 214.599 70.6991 214.599 69.5278V58.5069C214.599 57.3356 214.96 56.3773 215.681 55.6319C216.402 54.8866 217.329 54.5139 218.462 54.5139H256.936C258.069 54.5139 258.996 54.8866 259.718 55.6319C260.439 56.3773 260.799 57.3356 260.799 58.5069V76.3958C260.799 85.5532 258.79 93.3796 254.773 99.875C250.859 106.37 245.245 111.375 237.931 114.889C230.72 118.296 222.273 120 212.591 120Z" fill="#1A1A1A"/>
<path d="M278.235 118.403C277.102 118.403 276.175 118.03 275.454 117.285C274.733 116.539 274.372 115.581 274.372 114.41V10.5903C274.372 9.41898 274.733 8.46065 275.454 7.71528C276.175 6.96991 277.102 6.59722 278.235 6.59722H293.532C295.077 6.59722 296.21 7.02315 296.931 7.875C297.756 8.62037 298.271 9.15277 298.477 9.47222L337.878 73.5208V10.5903C337.878 9.41898 338.238 8.46065 338.959 7.71528C339.681 6.96991 340.608 6.59722 341.741 6.59722H358.892C360.025 6.59722 360.952 6.96991 361.673 7.71528C362.394 8.46065 362.755 9.41898 362.755 10.5903V114.41C362.755 115.475 362.394 116.433 361.673 117.285C360.952 118.03 360.025 118.403 358.892 118.403H343.595C341.947 118.403 340.762 118.03 340.041 117.285C339.32 116.433 338.805 115.847 338.496 115.528L299.249 53.5556V114.41C299.249 115.581 298.837 116.539 298.013 117.285C297.292 118.03 296.365 118.403 295.232 118.403H278.235Z" fill="#1A1A1A"/>
<path d="M415.107 120C403.055 120 393.475 116.593 386.368 109.778C379.363 102.963 375.706 92.9537 375.397 79.75C375.294 78.8981 375.243 77.8333 375.243 76.5556C375.243 75.2778 375.294 74.2662 375.397 73.5208C375.706 65.2153 377.509 58.081 380.805 52.1181C384.101 46.1551 388.634 41.6296 394.402 38.5417C400.274 35.3472 407.124 33.75 414.953 33.75C423.812 33.75 431.177 35.6134 437.049 39.3403C442.92 42.9606 447.35 47.9653 450.337 54.3542C453.324 60.7431 454.818 68.037 454.818 76.2361V79.9097C454.818 81.081 454.406 82.0394 453.582 82.7847C452.861 83.5301 451.933 83.9028 450.8 83.9028H400.892C400.892 84.0093 400.892 84.169 400.892 84.3819C400.892 84.5949 400.892 84.8079 400.892 85.0208C400.995 88.3218 401.562 91.3565 402.592 94.125C403.725 96.787 405.321 98.9167 407.382 100.514C409.442 102.111 411.966 102.91 414.953 102.91C417.219 102.91 419.073 102.537 420.515 101.792C422.061 101.046 423.348 100.194 424.378 99.2361C425.408 98.2778 426.181 97.4259 426.696 96.6805C427.623 95.6157 428.344 94.9769 428.859 94.7639C429.477 94.4445 430.404 94.2847 431.641 94.2847H449.255C450.285 94.2847 451.109 94.6042 451.727 95.243C452.448 95.7755 452.758 96.5741 452.655 97.6389C452.552 99.4491 451.676 101.632 450.028 104.188C448.38 106.637 446.01 109.086 442.92 111.535C439.83 113.984 435.915 116.007 431.177 117.604C426.542 119.201 421.185 120 415.107 120ZM400.892 68.7292H429.168V68.4097C429.168 64.7894 428.602 61.6482 427.469 58.9861C426.335 56.2176 424.687 54.1412 422.524 52.7569C420.464 51.2662 417.94 50.5208 414.953 50.5208C411.966 50.5208 409.39 51.2662 407.227 52.7569C405.167 54.1412 403.57 56.2176 402.437 58.9861C401.407 61.6482 400.892 64.7894 400.892 68.4097V68.7292Z" fill="#1A1A1A"/>
<path d="M484.982 118.403C483.437 118.403 482.304 118.03 481.583 117.285C480.862 116.539 480.295 115.581 479.883 114.41L457.633 40.4583C457.53 39.9259 457.478 39.3935 457.478 38.8611C457.478 37.9028 457.787 37.1042 458.405 36.4653C459.126 35.7199 459.951 35.3472 460.878 35.3472H475.711C477.05 35.3472 478.08 35.7199 478.801 36.4653C479.522 37.2106 479.986 37.9028 480.192 38.5417L493.635 86.1389L508.159 38.8611C508.365 38.1157 508.829 37.3704 509.55 36.625C510.374 35.7731 511.507 35.3472 512.949 35.3472H522.374C523.817 35.3472 524.95 35.7731 525.774 36.625C526.598 37.3704 527.061 38.1157 527.164 38.8611L541.689 86.1389L555.286 38.5417C555.389 37.9028 555.801 37.2106 556.522 36.4653C557.346 35.7199 558.376 35.3472 559.613 35.3472H574.446C575.373 35.3472 576.146 35.7199 576.764 36.4653C577.485 37.1042 577.845 37.9028 577.845 38.8611C577.845 39.3935 577.794 39.9259 577.691 40.4583L555.441 114.41C555.132 115.581 554.565 116.539 553.741 117.285C553.02 118.03 551.938 118.403 550.496 118.403H537.517C536.075 118.403 534.942 118.03 534.118 117.285C533.294 116.539 532.727 115.581 532.418 114.41L517.739 68.8889L503.06 114.41C502.648 115.581 502.03 116.539 501.206 117.285C500.485 118.03 499.352 118.403 497.807 118.403H484.982Z" fill="#1A1A1A"/>
<path d="M616.989 120C610.5 120 604.937 119.255 600.302 117.764C595.666 116.167 591.906 114.25 589.022 112.014C586.138 109.778 583.975 107.488 582.533 105.146C581.193 102.803 580.472 100.78 580.369 99.0764C580.266 97.9051 580.575 96.9468 581.296 96.2014C582.121 95.456 582.996 95.0833 583.923 95.0833H600.147C600.559 95.0833 600.868 95.1366 601.074 95.243C601.383 95.3495 601.692 95.6157 602.001 96.0417C603.341 96.8935 604.68 97.9051 606.019 99.0764C607.461 100.248 609.109 101.259 610.963 102.111C612.818 102.856 615.032 103.229 617.607 103.229C620.801 103.229 623.479 102.59 625.642 101.312C627.805 100.035 628.887 98.1713 628.887 95.7222C628.887 93.8056 628.372 92.2616 627.342 91.0903C626.312 89.919 624.355 88.8009 621.47 87.7361C618.586 86.6713 614.26 85.5532 608.491 84.3819C603.032 83.1042 598.293 81.4537 594.276 79.4305C590.361 77.3009 587.374 74.5856 585.314 71.2847C583.254 67.8773 582.224 63.8843 582.224 59.3056C582.224 55.0463 583.511 51 586.086 47.1667C588.662 43.2269 592.473 40.0324 597.521 37.5833C602.671 35.0278 608.955 33.75 616.371 33.75C622.14 33.75 627.187 34.4954 631.514 35.9861C635.943 37.3704 639.6 39.1806 642.484 41.4167C645.472 43.5463 647.686 45.7824 649.128 48.125C650.674 50.4676 651.498 52.544 651.601 54.3542C651.704 55.419 651.395 56.3773 650.674 57.2292C649.953 57.9745 649.128 58.3472 648.201 58.3472H633.368C632.853 58.3472 632.389 58.294 631.977 58.1875C631.668 57.9745 631.359 57.7083 631.05 57.3889C629.814 56.6435 628.526 55.7384 627.187 54.6736C625.951 53.5023 624.458 52.544 622.706 51.7986C621.058 50.9468 618.895 50.5208 616.217 50.5208C613.23 50.5208 610.86 51.213 609.109 52.5972C607.461 53.9815 606.637 55.7384 606.637 57.8681C606.637 59.3588 607.049 60.7431 607.873 62.0208C608.8 63.1921 610.654 64.3102 613.436 65.375C616.32 66.3333 620.698 67.3981 626.569 68.5694C633.574 69.8472 639.137 71.7639 643.257 74.3194C647.48 76.875 650.468 79.8565 652.219 83.2639C654.073 86.6713 655 90.2917 655 94.125C655 99.1296 653.506 103.602 650.519 107.542C647.635 111.481 643.36 114.569 637.694 116.806C632.132 118.935 625.23 120 616.989 120Z" fill="#1A1A1A"/>
<path fill-rule="evenodd" clip-rule="evenodd" d="M0 62.5C0 54.2924 1.61661 46.1651 4.75753 38.5823C7.89845 30.9994 12.5022 24.1095 18.3058 18.3058C24.1095 12.5022 30.9994 7.89845 38.5823 4.75753C46.1651 1.61661 54.2924 0 62.5 0C70.7076 0 78.8349 1.61661 86.4177 4.75753C94.0006 7.89845 100.891 12.5022 106.694 18.3058C112.498 24.1095 117.102 30.9994 120.242 38.5823C123.383 46.1651 125 54.2924 125 62.5C125 70.7076 123.383 78.8349 120.242 86.4177C117.102 94.0006 112.498 100.891 106.694 106.694C100.891 112.498 94.0006 117.102 86.4177 120.242C78.8349 123.383 70.7076 125 62.5 125C54.2924 125 46.1651 123.383 38.5823 120.242C30.9994 117.102 24.1095 112.498 18.3058 106.694C12.5022 100.891 7.89845 94.0006 4.75753 86.4177C1.61661 78.8349 0 70.7076 0 62.5ZM92.4867 62.5001C92.4867 58.5622 91.7111 54.6628 90.2041 51.0247C88.6971 47.3865 86.4883 44.0808 83.7038 41.2963C80.9193 38.5118 77.6136 36.3029 73.9754 34.796C70.3373 33.289 66.4379 32.5134 62.5 32.5134C58.5621 32.5134 54.6628 33.289 51.0246 34.796C47.3864 36.3029 44.0807 38.5117 41.2962 41.2963C38.5117 44.0808 36.3029 47.3865 34.7959 51.0247C33.2889 54.6628 32.5133 58.5622 32.5133 62.5001C32.5133 62.8863 32.5208 63.2722 32.5357 63.6575C32.6725 67.2004 33.4368 70.6942 34.7959 73.9755C36.3029 77.6136 38.5117 80.9193 41.2962 83.7038C44.0807 86.4884 47.3864 88.6972 51.0246 90.2041C51.4132 90.3651 51.8047 90.5177 52.199 90.6619C55.4962 91.868 58.9827 92.4868 62.5 92.4868C66.4379 92.4868 70.3373 91.7111 73.9754 90.2041C77.6136 88.6972 80.9193 86.4884 83.7038 83.7038C86.4883 80.9193 88.6971 77.6136 90.2041 73.9755C91.7111 70.3373 92.4867 66.438 92.4867 62.5001Z" fill="url(#paint0_linear_1321_226)"/>
<path d="M106.694 106.694C112.498 100.891 117.102 94.0006 120.242 86.4177C123.236 79.1915 124.845 71.4708 124.989 63.6574H92.4644H69.2883C63.9495 63.6574 60.6075 69.4308 63.2664 74.0604L72.801 90.6619C69.5039 91.8679 66.0173 92.4867 62.5 92.4867C58.5621 92.4867 54.6627 91.7111 51.0246 90.2041C47.3864 88.6971 44.0807 86.4883 41.2962 83.7038C38.5117 80.9193 36.3029 77.6136 34.7959 73.9754C33.2889 70.3373 32.5133 66.4379 32.5133 62.5H0C0 70.7076 1.61661 78.8349 4.75753 86.4177C7.89845 94.0006 12.5022 100.891 18.3058 106.694C24.1095 112.498 30.9994 117.102 38.5823 120.242C46.1651 123.383 54.2924 125 62.5 125C70.7076 125 78.8349 123.383 86.4177 120.242C94.0006 117.102 100.891 112.498 106.694 106.694Z" fill="url(#paint1_linear_1321_226)"/>
<defs>
<linearGradient id="paint0_linear_1321_226" x1="32.4102" y1="-0.000284956" x2="119.35" y2="22.1844" gradientUnits="userSpaceOnUse">
<stop stop-color="#7795F8"/>
<stop offset="1" stop-color="#A9B7FA"/>
</linearGradient>
<linearGradient id="paint1_linear_1321_226" x1="28.8462" y1="63.0342" x2="105.134" y2="24.1042" gradientUnits="userSpaceOnUse">
<stop stop-color="#7795F8"/>
<stop offset="1" stop-color="#5D65D1"/>
</linearGradient>
</defs>
</svg>
